<?xml version="1.0" encoding="UTF-8"?><svg xmlns="http://www.w3.org/2000/svg" xmlns:xlink="http://www.w3.org/1999/xlink" viewBox="0 0 50 50"><defs><style>.cls-1{fill:url(#radial-gradient);mix-blend-mode:multiply;opacity:.8;}.cls-2{fill:#fff;}.cls-3{fill:url(#Degradado_sin_nombre_9);}.cls-4{isolation:isolate;}</style><radialGradient id="radial-gradient" cx="29.2" cy="29.2" fx="29.2" fy="29.2" r="20.8" gradientTransform="translate(51.09 -5.82) rotate(77)" gradientUnits="userSpaceOnUse"><stop offset="0" stop-color="#000056"/><stop offset=".39" stop-color="#7373a2" stop-opacity=".55"/><stop offset=".78" stop-color="#d8d8e5" stop-opacity=".15"/><stop offset="1" stop-color="#fff" stop-opacity="0"/></radialGradient><linearGradient id="Degradado_sin_nombre_9" x1="33.06" y1="10.77" x2="12.58" y2="31.25" gradientUnits="userSpaceOnUse"><stop offset="0" stop-color="#006ef5"/><stop offset=".78" stop-color="#2130ae"/><stop offset="1" stop-color="#2b1e99"/></linearGradient></defs><g class="cls-4"><g id="ELEMENTS"><g><circle class="cls-1" cx="29.2" cy="29.2" r="20.8" transform="translate(-5.82 51.09) rotate(-77)"/><circle class="cls-3" cx="22.82" cy="21.01" r="14.48"/><path class="cls-2" d="M23.62,23.61c0,.44-.09,.83-.26,1.16-.18,.33-.42,.61-.73,.84-.31,.23-.67,.4-1.07,.51-.41,.12-.84,.18-1.3,.18h-5.04V15.87h5.58c.36,0,.69,.08,.98,.24,.29,.16,.54,.36,.75,.61,.21,.25,.36,.53,.48,.85,.11,.32,.17,.64,.17,.96,0,.51-.13,.99-.38,1.43-.26,.45-.63,.78-1.12,.99,.6,.18,1.07,.49,1.42,.95,.35,.46,.52,1.03,.52,1.71Zm-6.38-6.01v2.63h2.7c.34,0,.63-.12,.87-.35,.24-.24,.36-.56,.36-.97s-.11-.72-.33-.96c-.22-.24-.49-.35-.82-.35h-2.79Zm4.34,5.63c0-.19-.03-.36-.1-.54-.06-.17-.15-.32-.26-.45-.11-.13-.24-.23-.38-.3-.15-.07-.31-.11-.48-.11h-3.12v2.75h3.01c.19,0,.36-.03,.52-.1,.16-.07,.3-.16,.42-.29,.12-.12,.21-.27,.28-.43,.07-.17,.1-.34,.1-.53Z"/><path class="cls-2" d="M28.02,26.3c-.6,0-1.14-.1-1.62-.31-.96-.41-1.64-1.09-2.03-2.06-.19-.47-.28-.95-.28-1.47s.09-1.03,.27-1.5c.39-.98,1.06-1.67,2.03-2.09,.49-.21,1.04-.31,1.64-.31s1.15,.1,1.63,.31c1.58,.69,2.32,2.21,2.25,3.87,0,.11-.02,.21-.04,.28h-5.77c.03,.29,.1,.56,.21,.78,.11,.23,.26,.42,.44,.58,.18,.16,.38,.28,.61,.37,.23,.09,.46,.13,.71,.13,.38,0,.74-.09,1.07-.28,.34-.19,.57-.43,.69-.73l1.64,.46c-.28,.57-.71,1.04-1.32,1.4-.6,.37-1.32,.55-2.16,.55Zm1.94-4.5c-.05-.56-.25-1.01-.62-1.35-.37-.34-.81-.51-1.33-.51-.26,0-.5,.05-.72,.14-.22,.09-.42,.22-.59,.38-.17,.16-.31,.36-.42,.58-.11,.23-.17,.48-.19,.75h3.87Z"/><path class="cls-2" d="M25.51,16.36h4.99v1.24h-4.99v-1.24Z"/></g></g></g></svg>