<?xml version="1.0" encoding="UTF-8"?><svg xmlns="http://www.w3.org/2000/svg" xmlns:xlink="http://www.w3.org/1999/xlink" viewBox="0 0 50 50"><defs><style>.cls-1{fill:url(#radial-gradient);mix-blend-mode:multiply;opacity:.8;}.cls-2{fill:#fff;}.cls-3{fill:url(#Degradado_sin_nombre_9);}.cls-4{isolation:isolate;}</style><radialGradient id="radial-gradient" cx="32.14" cy="32.14" fx="32.14" fy="32.14" r="17.86" gradientUnits="userSpaceOnUse"><stop offset="0" stop-color="#000056"/><stop offset=".39" stop-color="#7373a2" stop-opacity=".55"/><stop offset=".78" stop-color="#d8d8e5" stop-opacity=".15"/><stop offset="1" stop-color="#fff" stop-opacity="0"/></radialGradient><linearGradient id="Degradado_sin_nombre_9" x1="35.45" y1="16.31" x2="17.87" y2="33.9" gradientUnits="userSpaceOnUse"><stop offset="0" stop-color="#006ef5"/><stop offset=".78" stop-color="#2130ae"/><stop offset="1" stop-color="#2b1e99"/></linearGradient></defs><g class="cls-4"><g id="ELEMENTS"><g><circle class="cls-1" cx="32.14" cy="32.14" r="17.86"/><circle class="cls-3" cx="26.66" cy="25.11" r="12.43"/><path class="cls-2" d="M27.35,27.34c0,.38-.08,.71-.23,1-.15,.29-.36,.53-.62,.72-.27,.19-.57,.34-.92,.44-.35,.1-.72,.15-1.12,.15h-4.33v-8.96h4.8c.31,0,.59,.07,.85,.2,.25,.13,.47,.31,.64,.52,.18,.21,.31,.46,.41,.73,.1,.27,.14,.55,.14,.83,0,.44-.11,.85-.33,1.23-.22,.38-.54,.67-.96,.85,.51,.15,.92,.42,1.22,.81,.3,.39,.45,.88,.45,1.47Zm-5.48-5.16v2.26h2.32c.29,0,.54-.1,.75-.3,.21-.2,.31-.48,.31-.83s-.09-.62-.28-.82c-.19-.2-.42-.3-.7-.3h-2.4Zm3.72,4.83c0-.16-.03-.31-.08-.46-.05-.15-.13-.28-.22-.38-.09-.11-.2-.2-.33-.26-.13-.06-.26-.09-.42-.09h-2.68v2.36h2.59c.16,0,.31-.03,.45-.09,.14-.06,.26-.14,.36-.25,.1-.11,.18-.23,.24-.37,.06-.14,.09-.29,.09-.45Z"/><path class="cls-2" d="M31.12,29.65c-.51,0-.98-.09-1.39-.26-.82-.35-1.4-.94-1.74-1.77-.16-.4-.24-.82-.24-1.26s.08-.89,.23-1.29c.33-.84,.91-1.43,1.74-1.79,.42-.18,.89-.27,1.41-.27s.99,.09,1.4,.27c1.35,.59,1.99,1.9,1.93,3.33,0,.1-.01,.18-.03,.24h-4.95c.02,.25,.09,.48,.18,.67,.1,.2,.22,.36,.38,.5,.15,.14,.33,.24,.53,.32,.2,.07,.4,.11,.61,.11,.33,0,.63-.08,.92-.24,.29-.16,.49-.37,.59-.63l1.41,.39c-.24,.49-.61,.89-1.13,1.2-.52,.31-1.14,.47-1.85,.47Zm1.66-3.86c-.04-.48-.22-.87-.53-1.16-.31-.29-.7-.43-1.14-.43-.22,0-.43,.04-.62,.12-.19,.08-.36,.19-.51,.32-.15,.14-.27,.31-.36,.5-.09,.2-.15,.41-.16,.65h3.33Z"/><path class="cls-2" d="M28.97,21.12h4.29v1.06h-4.29v-1.06Z"/></g></g></g></svg>