<?xml version="1.0" encoding="UTF-8"?><svg xmlns="http://www.w3.org/2000/svg" xmlns:xlink="http://www.w3.org/1999/xlink" viewBox="0 0 50 50"><defs><style>.cls-1{fill:url(#radial-gradient);mix-blend-mode:multiply;opacity:.8;}.cls-2{fill:#fff;}.cls-3{fill:url(#Degradado_sin_nombre_3);}.cls-4{isolation:isolate;}</style><radialGradient id="radial-gradient" cx="32.14" cy="32.03" fx="32.14" fy="32.03" r="17.86" gradientUnits="userSpaceOnUse"><stop offset="0" stop-color="#000056"/><stop offset=".39" stop-color="#7373a2" stop-opacity=".55"/><stop offset=".78" stop-color="#d8d8e5" stop-opacity=".15"/><stop offset="1" stop-color="#fff" stop-opacity="0"/></radialGradient><linearGradient id="Degradado_sin_nombre_3" x1="36.13" y1="15.97" x2="18.54" y2="33.56" gradientUnits="userSpaceOnUse"><stop offset="0" stop-color="#fbe18a"/><stop offset=".21" stop-color="#fcbb45"/><stop offset=".38" stop-color="#f75274"/><stop offset=".52" stop-color="#d53692"/><stop offset=".74" stop-color="#8f39ce"/><stop offset="1" stop-color="#5b4fe9"/></linearGradient></defs><g class="cls-4"><g id="ELEMENTS"><circle class="cls-1" cx="32.14" cy="32.03" r="17.86"/><circle class="cls-3" cx="27.34" cy="24.77" r="12.43"/><g><path class="cls-2" d="M31.19,20.06c-.47,0-.85,.38-.85,.85s.38,.85,.85,.85,.85-.38,.85-.85-.38-.85-.85-.85Z"/><path class="cls-2" d="M27.4,21.16c-1.98,0-3.59,1.61-3.59,3.59s1.61,3.59,3.59,3.59,3.59-1.61,3.59-3.59-1.61-3.59-3.59-3.59Zm0,5.89c-1.27,0-2.3-1.03-2.3-2.3s1.03-2.3,2.3-2.3,2.3,1.03,2.3,2.3-1.03,2.3-2.3,2.3Z"/><path class="cls-2" d="M30.25,32.04h-5.82c-2.41,0-4.38-1.96-4.38-4.38v-5.82c0-2.41,1.96-4.38,4.38-4.38h5.82c2.41,0,4.38,1.96,4.38,4.38v5.82c0,2.41-1.96,4.38-4.38,4.38Zm-5.82-13.21c-1.66,0-3.01,1.35-3.01,3.01v5.82c0,1.66,1.35,3.01,3.01,3.01h5.82c1.66,0,3.01-1.35,3.01-3.01v-5.82c0-1.66-1.35-3.01-3.01-3.01h-5.82Z"/></g></g></g></svg>