<?xml version="1.0" encoding="UTF-8"?><svg xmlns="http://www.w3.org/2000/svg" xmlns:xlink="http://www.w3.org/1999/xlink" viewBox="0 0 50 50"><defs><style>.cls-1{fill:url(#radial-gradient);mix-blend-mode:multiply;opacity:.8;}.cls-2{fill:#fff;}.cls-3{isolation:isolate;}</style><radialGradient id="radial-gradient" cx="29" cy="29" fx="29" fy="29" r="21" gradientUnits="userSpaceOnUse"><stop offset="0" stop-color="#000056"/><stop offset=".39" stop-color="#7373a2" stop-opacity=".55"/><stop offset=".78" stop-color="#d8d8e5" stop-opacity=".15"/><stop offset="1" stop-color="#fff" stop-opacity="0"/></radialGradient></defs><g class="cls-3"><g id="ELEMENTS"><circle class="cls-1" cx="29" cy="29" r="21"/><circle cx="23.35" cy="20.45" r="14.62"/><g><path class="cls-2" d="M27.89,14.92c-.55,0-1,.45-1,1.01s.45,1.01,1,1.01,1.01-.45,1.01-1.01-.45-1.01-1.01-1.01Z"/><path class="cls-2" d="M23.42,16.21c-2.33,0-4.22,1.89-4.22,4.22s1.89,4.22,4.22,4.22,4.22-1.89,4.22-4.22-1.89-4.22-4.22-4.22Zm0,6.93c-1.49,0-2.7-1.21-2.7-2.7s1.21-2.7,2.7-2.7,2.7,1.21,2.7,2.7-1.21,2.7-2.7,2.7Z"/><path class="cls-2" d="M26.77,29.01h-6.84c-2.84,0-5.15-2.31-5.15-5.15v-6.84c0-2.84,2.31-5.15,5.15-5.15h6.84c2.84,0,5.15,2.31,5.15,5.15v6.84c0,2.84-2.31,5.15-5.15,5.15Zm-6.84-15.53c-1.95,0-3.54,1.59-3.54,3.54v6.84c0,1.95,1.59,3.54,3.54,3.54h6.84c1.95,0,3.54-1.59,3.54-3.54v-6.84c0-1.95-1.59-3.54-3.54-3.54h-6.84Z"/></g></g></g></svg>