<?xml version="1.0" encoding="UTF-8"?><svg xmlns="http://www.w3.org/2000/svg" xmlns:xlink="http://www.w3.org/1999/xlink" viewBox="0 0 50 50"><defs><style>.cls-1{fill:url(#radial-gradient);mix-blend-mode:multiply;opacity:.8;}.cls-2{fill:#fff;}.cls-3{fill:url(#Degradado_sin_nombre_3);}.cls-4{isolation:isolate;}</style><radialGradient id="radial-gradient" cx="29.35" cy="29.24" fx="29.35" fy="29.24" r="20.65" gradientTransform="translate(53.5 -4.41) rotate(80.78)" gradientUnits="userSpaceOnUse"><stop offset="0" stop-color="#000056"/><stop offset=".39" stop-color="#7373a2" stop-opacity=".55"/><stop offset=".78" stop-color="#d8d8e5" stop-opacity=".15"/><stop offset="1" stop-color="#fff" stop-opacity="0"/></radialGradient><linearGradient id="Degradado_sin_nombre_3" x1="33.95" y1="10.66" x2="13.62" y2="31" gradientUnits="userSpaceOnUse"><stop offset="0" stop-color="#fbe18a"/><stop offset=".21" stop-color="#fcbb45"/><stop offset=".38" stop-color="#f75274"/><stop offset=".52" stop-color="#d53692"/><stop offset=".74" stop-color="#8f39ce"/><stop offset="1" stop-color="#5b4fe9"/></linearGradient></defs><g class="cls-4"><g id="ELEMENTS"><circle class="cls-1" cx="29.35" cy="29.24" r="20.66" transform="translate(-4.21 53.52) rotate(-80.78)"/><circle class="cls-3" cx="23.79" cy="20.83" r="14.38"/><g><path class="cls-2" d="M28.25,15.39c-.55,0-.99,.44-.99,.99s.44,.99,.99,.99,.99-.44,.99-.99-.44-.99-.99-.99Z"/><path class="cls-2" d="M23.85,16.66c-2.29,0-4.15,1.86-4.15,4.15s1.86,4.15,4.15,4.15,4.15-1.86,4.15-4.15-1.86-4.15-4.15-4.15Zm0,6.81c-1.47,0-2.66-1.19-2.66-2.66s1.19-2.66,2.66-2.66,2.66,1.19,2.66,2.66-1.19,2.66-2.66,2.66Z"/><path class="cls-2" d="M27.15,29.24h-6.73c-2.79,0-5.06-2.27-5.06-5.06v-6.73c0-2.79,2.27-5.06,5.06-5.06h6.73c2.79,0,5.07,2.27,5.07,5.06v6.73c0,2.79-2.27,5.06-5.07,5.06Zm-6.73-15.28c-1.92,0-3.48,1.56-3.48,3.48v6.73c0,1.92,1.56,3.48,3.48,3.48h6.73c1.92,0,3.48-1.56,3.48-3.48v-6.73c0-1.92-1.56-3.48-3.48-3.48h-6.73Z"/></g></g></g></svg>