<?xml version="1.0" encoding="UTF-8"?><svg xmlns="http://www.w3.org/2000/svg" xmlns:xlink="http://www.w3.org/1999/xlink" viewBox="0 0 50 50"><defs><style>.cls-1{fill:url(#radial-gradient);mix-blend-mode:multiply;opacity:.8;}.cls-2{fill:#fff;}.cls-3{fill:url(#Degradado_sin_nombre_10);}.cls-4{isolation:isolate;}</style><radialGradient id="radial-gradient" cx="31.72" cy="31.72" fx="31.72" fy="31.72" r="18.28" gradientUnits="userSpaceOnUse"><stop offset="0" stop-color="#000056"/><stop offset=".39" stop-color="#7373a2" stop-opacity=".55"/><stop offset=".78" stop-color="#d8d8e5" stop-opacity=".15"/><stop offset="1" stop-color="#fff" stop-opacity="0"/></radialGradient><linearGradient id="Degradado_sin_nombre_10" x1="36.05" y1="15.29" x2="18.47" y2="32.87" gradientUnits="userSpaceOnUse"><stop offset="0" stop-color="#007ab5"/><stop offset="1" stop-color="#0046e5"/></linearGradient></defs><g class="cls-4"><g id="ELEMENTS"><g><circle class="cls-1" cx="31.72" cy="31.72" r="18.28"/><circle class="cls-3" cx="27.26" cy="24.08" r="12.43"/><path class="cls-2" d="M22.05,21.76h2.41v7.74h-2.41v-7.74Zm1.2-3.84c.77,0,1.39,.62,1.39,1.39s-.62,1.4-1.39,1.4-1.4-.63-1.4-1.4,.62-1.39,1.4-1.39"/><path class="cls-2" d="M25.96,21.76h2.31v1.06h.03c.32-.61,1.11-1.25,2.28-1.25,2.43,0,2.88,1.6,2.88,3.68v4.24h-2.4v-3.76c0-.9-.02-2.05-1.25-2.05s-1.44,.98-1.44,1.99v3.83h-2.4v-7.74Z"/></g></g></g></svg>