<?xml version="1.0" encoding="UTF-8"?><svg xmlns="http://www.w3.org/2000/svg" xmlns:xlink="http://www.w3.org/1999/xlink" viewBox="0 0 50 50"><defs><style>.cls-1{fill:url(#radial-gradient);mix-blend-mode:multiply;opacity:.8;}.cls-2{fill:#fff;}.cls-3{isolation:isolate;}</style><radialGradient id="radial-gradient" cx="28.5" cy="28.5" fx="28.5" fy="28.5" r="21.5" gradientUnits="userSpaceOnUse"><stop offset="0" stop-color="#000056"/><stop offset=".39" stop-color="#7373a2" stop-opacity=".55"/><stop offset=".78" stop-color="#d8d8e5" stop-opacity=".15"/><stop offset="1" stop-color="#fff" stop-opacity="0"/></radialGradient></defs><g class="cls-3"><g id="ELEMENTS"><g><circle class="cls-1" cx="28.5" cy="28.5" r="21.5"/><circle cx="23.26" cy="19.52" r="14.62"/><path class="cls-2" d="M17.13,16.8h2.83v9.1h-2.83v-9.1Zm1.42-4.52c.91,0,1.64,.73,1.64,1.64s-.73,1.64-1.64,1.64-1.64-.74-1.64-1.64,.73-1.64,1.64-1.64"/><path class="cls-2" d="M21.73,16.8h2.71v1.24h.04c.38-.72,1.3-1.47,2.68-1.47,2.86,0,3.39,1.88,3.39,4.33v4.99h-2.83v-4.42c0-1.06-.02-2.41-1.47-2.41s-1.7,1.15-1.7,2.34v4.5h-2.83v-9.1Z"/></g></g></g></svg>