<?xml version="1.0" encoding="UTF-8"?><svg id="Calque_1" xmlns="http://www.w3.org/2000/svg" viewBox="0 0 542.84 539.74"><defs><style>.cls-1{stroke:#000;stroke-miterlimit:10;}.cls-2{fill:#1f7eff;}</style></defs><g><path d="M226.51,166.78c5.39-8.79,10.94-17.51,16.42-26.23,5.65-9,9.72-15.68,12.3-19.97,3.73-6.19,5.88-9.98,6.76-11.31,.16-.24,.39-.56,.7-.95,.31-.39,.6-.76,.86-1.14,.1-.15,.39-.6,.84-1.37,.46-.78,.79-1.33,1.02-1.67,1.25-1.86,.96,.49-.82,7.08-1.57,5.8-3.16,11.13-4.98,15.95-1.82,4.81-3.29,7.45-4.19,7.95-.71,.39-1.33,.04-1.59-.95-.32-1.22-.9-1.97-1.52-1.82-.4,.09-1.75,2.35-4.07,6.48-2.32,4.13-4.48,8.06-6.3,11.82-2.56,5.27-3.27,8.8-1.74,10.45,2.12,2.29,3.74,4.95,3.97,7.87,.69,11.62-2.56,23.26-5.44,34.23-4.46,16.98-11.13,35.78-22.51,48.97-8.03,9.3-17.64,18.82-31.08,19.01-5.49,.08-9.93-2.42-12.63-6.64-3.33-5.21-2.02-12.23,3.66-21.12,.47-.73,1.86-3.02,4.2-6.88,2.34-3.85,4.37-7.09,6.05-9.72,8.04-12.53,12.96-18.9,14.78-19.13,.73-.09,1.51,.75,2.5,2.56,.99,1.81,1.93,2.7,2.64,2.62,1.36-.15,3.65-2.08,6.71-5.83,3.06-3.76,5.37-7.46,7.12-11.07,3.93-8.13,5.12-13.25,4.06-13.82-.96-.52-3.31-.55-4.08-1.06-.86-.57,1.24-5.97,6.36-14.31Z"/><path class="cls-2" d="M258.33,241.87c-.92,9.85-3.06,17.37-6.58,22.44-3.25,4.69-7.43,7.1-12.29,7.1-4.14,0-6.96-2.53-8.2-7.53-1.24-4.99-.68-11.65,1.39-20.05,2.03-8.24,5.26-16.66,9.22-25.23,4.35-9.42,7.58-14.39,10.18-14.7,2.75-.33,4.41,3.85,5.61,12.63,1.09,7.99,1.5,16.47,.67,25.33Z"/><path d="M315.08,245.62c4.39,13.62-3.14,24.67-17.51,24.56-2.83-.02-6.47-.33-10.8-1.01-4.33-.67-6.86-1.02-7.64-1.03-3.6-.01-6.92-2.62-9.61-7.76-2.69-5.13-3.54-11.27-2.85-18.39,.45-4.64,1.66-8.85,3.59-11.9,1.3-2.05,2.83-4.18,4.13-6.29,3.96-11.03,3.64-24.11,4.08-35.45,.51-13.2,.57-26.75-.02-40.11-.39-8.96-.77-14.01-1.07-15.14-.88-1.88-1.81-3.74-2.45-5.42-.72-1.88-.82-4.51-.62-8.98,.52-10.35,1.45-17.14,2.33-20.97,.65-2.87,1.15-3.61,1.97-2.34,.29,.46,.78,2.3,1.58,5.5,.8,3.2,1.66,6.86,2.45,11.02,.83,4.32,1.23,6.9,1.13,7.65-.12,.98-.19,2.12-.07,3.35,.33,3.38,1.32,10.5,3.09,21.33,4.14,25.39,7.99,51.11,15.02,75.93,1.73,6.01,4.13,10.2,6.95,12.59,2.49,2.11,4.41,6.89,6.33,12.84Z"/><path d="M299.81,159.55c-2.72-9.1-5.25-18.28-7.78-27.43-2.54-9.17-4.44-15.71-5.54-19.6-1.61-5.64-2.12-7.75-1.23-6.43,.16,.24,.49,.78,1.01,1.63,.52,.84,.91,1.45,1.17,1.82,.1,.15,.28,.37,.54,.69,.25,.31,.48,.65,.71,.99,1.25,1.86,3.83,5.87,7.79,12.02,3.49,5.42,6.38,10.02,8.46,13.84,2.07,3.82,2.55,5.51,1.65,5.01-.71-.39-1.99-1.59-3.64-3.6-1.93-2.34-3.5-4.29-4.8-5.45-.54-.48-.21,1.06,.96,4.66,1.16,3.6,2.46,7.33,4.05,11.14,2.23,5.35,5.07,9.81,8.92,13.2,5.33,4.7,9.89,8.69,13,12.14,9.42,10.48,17.95,22.09,25.32,33.99,8.52,13.76,18.17,28.71,19.84,44.95,1.2,11.63-4.44,18.05-14.37,18.05-5.56,0-12.05-2.43-18.78-7-7.96-5.4-13.7-13.68-16.23-22.99-.21-.79-.97-3.27-2.25-7.45-1.28-4.18-2.3-7.69-3.08-10.53-3.72-13.54-4.67-20.2-2.85-19.97,.73,.09,2.46,1.37,5.37,3.8,2.91,2.43,4.8,3.66,5.51,3.74,1.36,.15,2.02-1.56,1.79-5.08-.23-3.52-1.19-7.1-2.72-10.76-3.45-8.24-6.58-13.66-9.07-15.29-1.84-1.2-4.43-2.26-6.13-3.49-2.37-1.71-4.91-7.68-7.58-16.61Z"/></g><g><path d="M151.11,368.57c3.08,1.24,3.28-1.25,1.02-7.74-.75-2.16-2.85-5.55-6.31-10.04-5.24-6.89-8.37-11.13-9.51-12.89-3.7-5.6-6.12-10.89-7.06-16.1-1.68-9.29-.26-16.72,3.64-22.38,3.46-5.03,8.07-7.75,13.36-7.75,1.69,0,4.09,.66,7.24,2.04,3.14,1.38,5.59,2.11,7.33,2.13,3.03,.04,4.12,7.78,4.96,22.51,.48,8.44-.52,12.35-3.54,11.97-2.1-.26-4.53-3.78-7.02-10.54-2.49-6.75-4.49-10.18-6.31-10.29-4.03-.25-5.92,2.61-5.31,8.44,.36,3.42,3.07,7.48,8.06,12.38,6.7,6.57,11.47,12.14,14.21,16.43,6.04,9.52,9.82,20.34,12.67,31.15,3.36,12.73,5.17,21.92,5.3,27.42,.13,5.5-1.33,6.2-5.47,3.05-4.24-3.23-9.29-8.41-15.6-15.06-7.47-7.87-14.75-16.18-20.34-25.5-3.02-5.05-2.93-7.19-.14-6.09,.9,.35,2.15,1.4,3.75,3.14,1.6,1.75,3.28,3,5.07,3.72Z"/><path d="M203.51,351.36c1.28,10.46,3.2,21.05,5.48,31.28,2.48,11.13,4.29,17.66,5.29,19.71,.82,1.67,1.83,3.5,2.82,5.42,.99,1.92,1.64,3.74,1.96,5.46,1.63,8.83,1.83,13.66,.55,14.97-1,1.02-4.4,.57-10.02-1.86-4.49-1.94-7.78-4.48-10.09-7.32-2.31-2.85-4.71-7.24-6.86-13.56-.51-1.48-.64-2.96-.37-4.47,.33-1.84,.5-3.15,.43-3.83-.17-2.77-1.65-10.1-2.97-22.8-1.2-11.43-2.07-23.08-2.58-34.66-.12-2.79-.59-9.35-.83-20.05-.51-.48-.77-.73-1.28-1.21-.72-.04-1.33,1.46-1.74,4.45-.59,4.24-1.07,6.98-1.58,8.29-1.05,2.86-2.73,4.12-5.1,3.84-2-.24-3.44-1.81-4.28-4.72-.53-1.82-1.02-5.27-1.3-10.45-.29-5.42,.33-11.11,1.81-17.12,1.72-6.98,3.82-10.68,6.01-10.67,.79,0,1.95,.42,3.5,1.26,1.55,.84,2.71,1.27,3.5,1.28,9.44,.06,15.77-.1,18.99-.49,.28-.12,.69-.48,1.21-1.1,.52-.61,.98-.92,1.38-.92,2.36,0,4.23,3.75,5.83,11.15,1.36,6.34,2.11,12.65,2.19,18.85,.14,11.22-1.36,16.52-4.89,16.25-1.99-.15-3.77-3.31-5.25-9.52-1.47-6.21-2.79-9.38-4.07-9.44-.33,.29-.49,.44-.82,.73,.25,4.28,.82,12.52,2.2,24.33,.35,2.79,.53,4.18,.91,6.94Z"/><path d="M269.08,352.08c.01,4.51,.06,11.22,.15,19.88,.1,8.66,.15,14.97,.16,19.16,.03,11.12-2.01,22.25-6.19,32.57-3.94,9.7-7.81,13.91-12.27,13.35-8.05-1.01-14.14-5.79-18.31-13.65-6.81-12.85-8.9-27.98-10.45-42.27-.42-3.91-.82-9.96-1.18-18.19-.36-8.23-.54-14.6-.71-18.87-.37-9.43-.93-16.57-1.89-21.13-.48-2.15-1.36-4.47-2.67-6.9-.95-1.76-1.45-4.12-1.43-7.08,.03-5.77,1.76-10.03,5-12.75,2.24-1.88,4.88-2.87,7.92-2.87,9.22,.02,13.73,4.98,13.66,14.69-.02,3.05-.51,5.61-1.48,7.64-1.29,2.72-2.09,4.81-2.37,6.3-.94,5.42-1.35,14.49-1.02,26.8-.04-.16-.06-.24-.09-.4,.38,12.06,1.26,19.9,2.37,24,1.67,5.9,4.76,8.98,9.31,9.27,3.85,.24,6.42-1.51,7.72-5.26,1.3-3.75,1.89-10.34,1.77-20.07-.12-9.99-.34-18.05-.69-23.9-.43-7.07-1.4-11.94-3-14.24-1.35-1.94-2.12-4.8-2.1-8.56,.05-10.73,4.58-16.22,13.47-16.22,2.31,0,4.37,.93,6.08,2.77,2.31,2.49,3.48,6.38,3.49,11.43,0,3.09-.47,5.68-1.44,7.76-1.23,2.64-2.02,4.73-2.3,6.25-1.51,10.05-1.55,20.38-1.52,30.51Z"/><path d="M281.18,344.99c.11-13.49-.69-22.07-2.23-25.11-.51-.69-1.43-1.78-2.13-3.11-.76-1.44-1.03-4.03-1.03-7.11,0-5.74,1.49-10.06,4.37-12.9,2.41-2.38,5.45-3.48,8.93-3.41,.72,.01,2.3,.24,4.65,.63,11.05,1.87,20.1,9.41,24.99,19.41,8.72,17.83,8.81,39.73,7.08,58.88-1.38,15.24-4.71,31.9-11.51,44.95-3.76,7.23-9.27,17.9-18.7,19.62-9,1.64-12.25,1.6-8.83,1.35-4.51,.37-7.75-.32-9.67-1.7-1.71-1.22-2.86-2.18-3.28-2.82-.84-1.18-1.18-3.05-1.03-5.6,.31-5.2,.96-9.27,2.05-11.93,1.43-3.48,2.46-6.75,2.97-9.72,3.26-20.21,3.2-41.09,3.37-61.44Zm20.03-29.54c-.28,.42-.63,1.16-1.1,2.08-.56,1.09-1.09,2.63-1.4,4.55-.32,1.92-.71,4.21-.83,6.55-.75,13.8-.43,28.94-.77,43.35-.25,10.48,.68,15.42,3.04,15.21,2.73-.24,4.96-4.04,6.75-11.46,1.3-5.42,2.2-12.01,2.52-19.87,.39-9.66,.03-17.97-.92-24.75-1.4-9.95-3.88-15.32-7.27-15.66Z"/><path d="M338.03,341.65c1.06-12.27,.02-20.65-1.4-23.32-.49-.63-1.39-1.64-2.07-2.86-.73-1.33-.99-3.79-1-6.71-.02-5.45,1.39-9.58,4.21-12.28,2.36-2.26,5.32-3.34,8.85-3.24,4.98,.14,8.56,1.56,10.65,4.02,1.72,2.02,2.71,5.13,2.7,9.29,0,2.53-.3,4.35-.85,5.51-.55,1.15-1.11,2.25-1.69,3.29-.58,1.03-1.03,2.44-1.37,4.21-1.18,5.57-2.03,14-3.06,24.86-.03,.36-.05,.54-.09,.9-.49,10.38-1.21,20.83-2.35,31.14-1.29,11.68-2.46,18.06-2.28,19.82,.13,1.21,.37,2.59,.52,3.97,.15,1.39-.06,2.86-.58,4.45-2.7,8.12-5.5,13.18-7.83,15.77-1.81,2.01-5.4,4.45-11.06,6.8-4.56,1.89-7.39,1.86-8.45,.1-1.05-1.77-.92-5.96,.35-12.84,.3-1.61,1.06-3.51,2.3-5.69,1.51-2.66,2.41-4.41,2.69-5.22,1.21-3.24,3.62-11.47,6.28-25.3,2.33-12.11,4.52-24.64,5.56-36.64Z"/><path d="M401.21,363.22c-5.44,10.6-14.18,20.25-22.52,29.25-7.91,8.53-13.79,14.72-18.16,18.04-4.89,3.72-6.09,1.93-5.31-6.91,1.08-12.23,3.63-24.48,6.04-36.56,3.33-16.71,6.63-34.15,12.42-49.84,3.47-9.39,8.78-25.77,20.69-25.53,12.24,.25,15.94,17.32,17.35,26.85,2.26,15.36-3.46,30.98-10.5,44.7Zm-7.88-13.21c1.92-6.63,2.98-13.97,2.77-22.34-.27-10.46-2.58-16.05-5.5-15.85-1.71,.12-3.14,2.86-4.51,8.18-1.05,4.05-1.85,8.34-2.46,12.81-1.04,7.59-1.77,14.42-2.12,20.38-.47,7.98,.27,11.24,3.03,10.38,3.28-1.03,6.45-5.42,8.8-13.56Z"/></g><g><path class="cls-1" d="M432.29,165.01l-2.2-3.08,1.55-4.26-4.68-6.55-4.55,.07-.13-.18,15.01-.19,.03,.04-5.02,14.16Zm1.72-13.98l-6.89,.08,4.57,6.39,2.32-6.47Z"/><path class="cls-1" d="M440.12,178.35l-6.63-11.29,10.5-6.17,1.77,3.01-10.38,6.1,4.86,8.28-.12,.07Z"/><path class="cls-1" d="M447.12,192.71l-5.66-11.8,10.98-5.27,1.51,3.15-10.85,5.21,4.15,8.65-.13,.06Z"/><path class="cls-1" d="M452.27,204.28c0-1.47,.32-2.76,.93-3.86s1.56-1.86,2.84-2.29c1.28-.43,2.49-.38,3.65,.12,1.15,.51,2.17,1.35,3.06,2.53,.89,1.18,1.59,2.55,2.12,4.13,.52,1.56,.78,3.08,.77,4.55,0,1.47-.31,2.76-.93,3.86-.62,1.1-1.57,1.86-2.84,2.29-1.28,.43-2.49,.38-3.65-.12-1.15-.51-2.17-1.35-3.06-2.53s-1.59-2.54-2.11-4.11c-.53-1.58-.79-3.1-.78-4.57Zm8.43,7.83c3.85-1.28,5.2-3.67,4.04-7.15-1.17-3.5-3.68-4.61-7.53-3.33s-5.19,3.68-4.03,7.18c1.16,3.48,3.67,4.58,7.52,3.3Z"/><path class="cls-1" d="M458.27,222.04c.54-1.33,1.56-2.17,3.06-2.5l7.39-1.63,.75,3.41-7.39,1.63c-1.39,.31-2.39,.94-2.98,1.88-.59,.95-.68,2.37-.26,4.27,.41,1.85,1.08,3.23,2.02,4.14,.94,.91,2.16,1.19,3.68,.86l7.39-1.63,.04,.19-7.39,1.63c-1.51,.33-2.78,.02-3.82-.93-1.04-.95-1.85-2.74-2.43-5.35-.58-2.65-.61-4.64-.07-5.97Z"/><path class="cls-1" d="M462.11,250.54l4.67-6.47-.32-2.65-5.37,.65-.42-3.47,12.09-1.46,.81,6.68c.17,1.4,.25,2.69,.25,3.88s-.2,2.23-.59,3.14c-.39,.91-1.07,1.42-2.04,1.54-1.06,.13-1.89-.25-2.5-1.14s-1.07-2.09-1.38-3.61l-4.72,6.8-.47-3.89Zm10.93-9.91l-6.44,.78,.39,3.22c.18,1.45,.57,2.56,1.19,3.31,.62,.75,1.48,1.06,2.58,.93,1.14-.14,1.92-.62,2.33-1.44s.53-2.01,.34-3.58l-.39-3.22Z"/><path class="cls-1" d="M463.66,267.04c.53-1.41,1.27-2.53,2.22-3.36,.95-.82,2.06-1.23,3.33-1.21,1.28,.02,2.38,.45,3.3,1.29s1.63,2,2.1,3.49c.47,1.49,.7,3.19,.67,5.1-.04,2.24-.38,3.91-1.03,5-.65,1.09-1.47,1.62-2.45,1.61-.49,0-.92-.14-1.3-.39l.05-.17c.38,.24,.79,.36,1.25,.37,.99,.02,1.77-.5,2.34-1.56,.57-1.05,.87-2.41,.9-4.07,.02-1.55-.23-2.84-.77-3.88-.54-1.04-1.26-1.81-2.16-2.3-.9-.5-1.89-.75-2.95-.77-1.06-.02-2.04,.18-2.94,.6-.91,.42-1.65,1.1-2.23,2.05s-.88,2.17-.9,3.66c-.03,1.68,.28,3.11,.91,4.29,.64,1.18,1.53,1.96,2.69,2.33v.2c-1.23-.39-2.18-1.23-2.87-2.53-.69-1.3-1.01-2.99-.98-5.06,.03-1.7,.31-3.25,.83-4.66Z"/><path class="cls-1" d="M461.49,294.07l5.99-5.26,.28-2.65-5.38-.56,.36-3.47,12.11,1.27-.7,6.69c-.15,1.41-.35,2.68-.62,3.83-.27,1.15-.69,2.12-1.28,2.92-.58,.8-1.36,1.15-2.33,1.05-1.06-.11-1.79-.67-2.19-1.67-.4-1-.58-2.28-.54-3.83l-6.11,5.58,.41-3.89Zm12.86-7.23l-6.45-.68-.34,3.22c-.15,1.46-.01,2.62,.42,3.49,.43,.87,1.2,1.37,2.31,1.48,1.14,.12,2.01-.17,2.59-.88s.96-1.85,1.13-3.42l.34-3.22Z"/><path class="cls-1" d="M465.94,305.4l-5.91-1.17-1.91,9.66-.14-.03,2.59-13.08,11.95,2.37-2.54,12.84-.14-.03,1.87-9.42-5.63-1.12-1.56,7.87-.14-.03,1.56-7.88Z"/><path class="cls-1" d="M452.74,332.22l1.07-3.63,4.31-1.4,2.28-7.72-2.85-3.55,.06-.21,9.39,11.71v.05s-14.26,4.76-14.26,4.76Zm12.08-7.25l-4.31-5.38-2.22,7.53,6.53-2.15Z"/><path class="cls-1" d="M449.82,339.61l1.26-3.31,11.25,4.29,2.39-6.27,.13,.05-6.04,15.84-.13-.05,2.39-6.27-11.25-4.29Z"/><path class="cls-1" d="M444.71,351.45l1.46-3.17,11.06,5.1-1.46,3.17-11.06-5.1Z"/><path class="cls-1" d="M441.18,364.1l5.2,10.39-.11,.2-6.7-13.45,.02-.04,14.92-1.64-1.81,3.33-11.52,1.22Z"/><path class="cls-1" d="M432.28,373.78l1.87-2.95,10.28,6.53-1.87,2.95-10.28-6.53Z"/><path class="cls-1" d="M424.88,384.4l2.09-2.85,9.71,7.12,3.97-5.41,.11,.08-10.03,13.67-.11-.08,3.97-5.41-9.71-7.12Z"/><path class="cls-1" d="M417.66,411.84l-.18,.2-1.17-9.78-3.57-3.19,2.33-2.6,3.48,3.11,10.44-.4-2.53,2.82-9.93,.35,1.14,9.48Z"/><path class="cls-1" d="M386.34,423.29l2.93-2.41,4.36,1.25,6.22-5.12-.38-4.54,.17-.14,1.21,14.96-.04,.03-14.47-4.04Zm14.07,.77l-.55-6.87-6.06,4.99,6.62,1.88Z"/><path class="cls-1" d="M379.81,427.77l2.9-2.04,6.92,9.85,5.49-3.86,.08,.11-13.87,9.75-.08-.11,5.49-3.86-6.92-9.85Z"/><path class="cls-1" d="M359.04,454l-.24,.13,2.29-9.58-2.24-4.23,3.08-1.63,2.18,4.12,9.93,3.25-3.35,1.77-9.44-3.12-2.22,9.29Z"/><path class="cls-1" d="M348.49,445.94c1.47-.1,2.77,.12,3.91,.67s1.96,1.43,2.48,2.68c.51,1.24,.55,2.46,.13,3.65-.43,1.19-1.2,2.26-2.31,3.23s-2.44,1.76-3.97,2.4c-1.52,.63-3.02,.99-4.49,1.09-1.47,.1-2.77-.12-3.91-.67-1.14-.54-1.97-1.43-2.48-2.68s-.55-2.46-.13-3.65,1.2-2.26,2.31-3.23c1.11-.97,2.43-1.76,3.95-2.39,1.54-.63,3.04-1,4.51-1.09Zm-7.23,8.95c1.55,3.75,4.02,4.93,7.41,3.53,3.41-1.41,4.34-3.98,2.8-7.74-1.55-3.75-4.02-4.93-7.44-3.52-3.4,1.4-4.32,3.97-2.78,7.73Z"/><path class="cls-1" d="M331.18,453.15c1.37,.44,2.27,1.4,2.71,2.88l2.14,7.26-3.35,.99-2.14-7.26c-.4-1.37-1.1-2.32-2.08-2.84-.99-.53-2.41-.51-4.28,.04-1.82,.54-3.15,1.3-3.99,2.3-.84,1-1.04,2.24-.6,3.73l2.14,7.26-.19,.06-2.14-7.26c-.44-1.48-.21-2.77,.66-3.88,.88-1.11,2.6-2.04,5.17-2.79,2.6-.77,4.58-.93,5.95-.48Z"/><path class="cls-1" d="M303.01,458.94l6.77,4.22,2.62-.5-1.02-5.32,3.43-.65,2.28,11.96-6.61,1.26c-1.39,.26-2.67,.44-3.85,.51-1.18,.08-2.23-.05-3.17-.38-.93-.33-1.49-.97-1.68-1.93-.2-1.05,.12-1.91,.97-2.58,.85-.67,2.02-1.21,3.51-1.63l-7.1-4.24,3.84-.73Zm10.63,10.23l-1.22-6.38-3.18,.61c-1.44,.27-2.51,.75-3.22,1.41-.71,.67-.96,1.55-.75,2.64,.22,1.13,.75,1.87,1.59,2.23,.85,.36,2.05,.39,3.6,.09l3.18-.61Z"/><path class="cls-1" d="M287.59,461.12c1.18,.17,2.1,.48,2.78,.91s1.03,.95,1.07,1.58c.03,.44-.1,.83-.38,1.17l-.18-.06c.26-.35,.38-.72,.35-1.1-.04-.58-.38-1.07-1.02-1.47s-1.52-.69-2.64-.86c-1.12-.17-2.39-.21-3.82-.12-1.48,.09-2.78,.36-3.92,.81-1.14,.44-1.68,1.07-1.63,1.88,.03,.5,.32,.9,.88,1.21,.55,.31,1.22,.54,2.01,.71,.79,.17,1.86,.34,3.22,.54,1.53,.22,2.76,.43,3.69,.63,.93,.2,1.72,.51,2.38,.91,.66,.41,1.01,.94,1.05,1.62,.04,.7-.24,1.33-.87,1.9-.62,.57-1.5,1.04-2.65,1.41-1.14,.36-2.45,.59-3.93,.68-1.39,.09-2.61,.05-3.66-.13-1.04-.17-1.86-.46-2.45-.86-.59-.4-.91-.89-.94-1.47-.03-.42,.08-.79,.3-1.12l.15,.06c-.19,.34-.28,.69-.26,1.04,.03,.54,.33,1,.89,1.38,.56,.38,1.32,.65,2.29,.81,.97,.16,2.07,.2,3.29,.12,1.58-.1,2.84-.37,3.8-.82,.95-.44,1.41-1.01,1.37-1.71-.03-.46-.31-.84-.83-1.12-.53-.29-1.17-.5-1.93-.65-.76-.14-1.8-.31-3.13-.49-1.54-.2-2.8-.41-3.76-.61-.96-.2-1.79-.51-2.48-.94-.69-.43-1.06-1-1.11-1.72-.05-.81,.28-1.52,.99-2.13,.71-.61,1.68-1.09,2.92-1.45,1.24-.36,2.62-.58,4.17-.68,1.48-.09,2.8-.05,3.98,.12Z"/><path class="cls-1" d="M268.54,467.71l.16-6.02-9.84-.26v-.14s13.34,.36,13.34,.36l-.33,12.18-13.08-.35v-.14s9.6,.26,9.6,.26l.15-5.74-8.03-.21v-.14s8.03,.21,8.03,.21Z"/><path class="cls-1" d="M244.05,459.71l5.19,6.06,2.65,.31,.63-5.38,3.47,.41-1.42,12.1-6.69-.79c-1.4-.17-2.68-.39-3.82-.67-1.15-.28-2.12-.72-2.91-1.31-.79-.6-1.13-1.38-1.02-2.34,.12-1.06,.69-1.78,1.7-2.17s2.29-.55,3.84-.49l-5.5-6.18,3.89,.46Zm7.06,12.96l.76-6.45-3.22-.38c-1.45-.17-2.62-.04-3.5,.38-.88,.42-1.38,1.19-1.51,2.29-.13,1.14,.15,2.01,.85,2.61,.7,.6,1.83,.99,3.4,1.17l3.22,.38Z"/><path class="cls-1" d="M229.58,459.78l-8.43,7.99-.22-.05,10.92-10.32h.05s5.9,13.81,5.9,13.81l-3.71-.77-4.51-10.67Z"/><path class="cls-1" d="M217.69,454.05l3.36,.94-3.27,11.73-3.36-.94,3.27-11.73Z"/><path class="cls-1" d="M210,452.34c1.17,.95,1.99,2.01,2.47,3.18,.48,1.17,.5,2.35,.08,3.54-.43,1.2-1.19,2.11-2.27,2.72s-2.41,.9-3.98,.88c-1.56-.03-3.24-.36-5.04-1-2.11-.75-3.58-1.61-4.41-2.57s-1.07-1.91-.74-2.84c.16-.46,.43-.83,.79-1.1l.15,.11c-.35,.28-.6,.64-.75,1.06-.33,.93-.09,1.83,.73,2.71,.82,.88,2.01,1.6,3.57,2.16,1.46,.52,2.76,.69,3.92,.5,1.16-.18,2.12-.62,2.87-1.32,.76-.7,1.32-1.55,1.67-2.55,.35-1,.48-1.99,.37-2.98-.11-.99-.52-1.91-1.23-2.76s-1.77-1.53-3.18-2.03c-1.58-.56-3.03-.73-4.36-.5-1.32,.23-2.34,.83-3.06,1.8l-.19-.07c.76-1.04,1.86-1.67,3.31-1.91,1.45-.24,3.15,0,5.11,.69,1.6,.57,2.98,1.33,4.15,2.28Z"/><path class="cls-1" d="M190.33,450.62l2.53-5.46-8.93-4.15,.06-.13,12.1,5.62-5.13,11.05-11.87-5.51,.06-.13,8.71,4.04,2.42-5.21-7.28-3.38,.06-.13,7.28,3.38Z"/><path class="cls-1" d="M168.62,432l3.01,1.86-6.34,10.24,5.7,3.53-.07,.12-14.42-8.92,.07-.12,5.7,3.53,6.34-10.24Z"/><path class="cls-1" d="M158.55,425.94c.83,1.22,1.3,2.45,1.41,3.71s-.24,2.42-1.05,3.49c-.81,1.07-1.84,1.73-3.08,1.96-1.24,.23-2.56,.12-3.95-.35-1.4-.47-2.76-1.2-4.08-2.21-1.31-.99-2.38-2.1-3.21-3.32-.83-1.22-1.3-2.45-1.41-3.71-.11-1.26,.24-2.42,1.05-3.49s1.84-1.73,3.08-1.96c1.24-.23,2.56-.12,3.95,.35,1.4,.47,2.75,1.2,4.06,2.19,1.33,1,2.4,2.11,3.23,3.33Zm-11.39-1.69c-2.45,3.24-2.21,5.96,.72,8.18,2.94,2.23,5.64,1.72,8.09-1.52,2.45-3.24,2.2-5.97-.74-8.2-2.93-2.22-5.62-1.71-8.07,1.53Z"/><path class="cls-1" d="M133,403.1l.36,7.97,1.9,1.88,3.8-3.85,2.48,2.45-8.56,8.66-4.79-4.73c-1-.99-1.87-1.95-2.6-2.88s-1.23-1.87-1.48-2.83c-.26-.96-.04-1.78,.64-2.47,.75-.76,1.64-.98,2.67-.66,1.03,.32,2.14,.97,3.33,1.97l-.53-8.26,2.78,2.75Zm-2.4,14.56l4.56-4.62-2.31-2.28c-1.04-1.03-2.04-1.65-2.99-1.85-.95-.21-1.82,.09-2.6,.88-.81,.82-1.12,1.68-.93,2.58s.84,1.91,1.96,3.01l2.31,2.28Z"/><path class="cls-1" d="M121.38,399.49l4.6-3.88-6.35-7.53,.11-.09,8.6,10.2-9.31,7.85-8.44-10,.11-.09,6.19,7.34,4.39-3.7-5.18-6.14,.11-.09,5.18,6.14Z"/><path class="cls-1" d="M108.64,372.43l2.17,3.11-1.59,4.25,4.62,6.6,4.55-.02,.13,.18-15.01,.03-.03-.04,5.16-14.11Zm-1.87,13.96h6.89s-4.5-6.45-4.5-6.45l-2.39,6.45Z"/><path class="cls-1" d="M105.61,368.37c.27,1.48,.2,2.82-.19,4.02-.4,1.2-1.15,2.11-2.24,2.74-1.11,.63-2.27,.83-3.5,.58-1.22-.25-2.42-.89-3.59-1.92-1.17-1.04-2.23-2.38-3.18-4.04-1.12-1.95-1.67-3.55-1.67-4.82,0-1.27,.43-2.14,1.29-2.63,.42-.24,.86-.35,1.32-.32l.04,.18c-.45-.01-.87,.09-1.26,.32-.85,.49-1.26,1.33-1.21,2.54,.05,1.2,.48,2.52,1.31,3.96,.77,1.34,1.65,2.32,2.65,2.94,1,.62,2.01,.91,3.04,.87,1.03-.04,2.01-.32,2.93-.85,.92-.53,1.66-1.2,2.22-2.02s.85-1.79,.87-2.9c.01-1.11-.35-2.31-1.1-3.61-.83-1.46-1.83-2.53-2.98-3.22-1.15-.69-2.32-.9-3.5-.62l-.1-.17c1.25-.29,2.5-.06,3.75,.71,1.25,.77,2.4,2.05,3.43,3.85,.84,1.47,1.4,2.95,1.67,4.43Z"/><path class="cls-1" d="M87.92,345.89l-5.4,2.41-1.42-3.19,11.13-4.95,1.42,3.19-5.6,2.49,3.73,8.38,5.6-2.49,1.42,3.19-11.13,4.95-1.42-3.19,5.41-2.41-3.73-8.38Z"/><path class="cls-1" d="M81.96,318.54l-8.68,2.6-.06-.19,11.8-3.53v.05s-4.53,16.9-4.53,16.9l8.68-2.6,.06,.19-11.8,3.53v-.05s4.54-16.9,4.54-16.9Z"/><path class="cls-1" d="M77.39,311.98l5.9-1.2-1.96-9.65,.14-.03,2.65,13.07-11.94,2.42-2.6-12.83,.14-.03,1.91,9.41,5.63-1.14-1.59-7.87,.14-.03,1.59,7.87Z"/><path class="cls-1" d="M76.55,279.42l-10.11-5.83-.02-.22,12.99,7.52v.05s-6.57,5.48-6.57,5.48l7.4,4.33v.05s-11.55,9.58-11.55,9.58l-.32-3.78,9.02-7.34-4.68-2.73-4.85,4.04-.32-3.78,9-7.36Z"/><path class="cls-1" d="M73.5,251.62l-5.9-.39,.23-3.48,12.15,.81-.23,3.48-6.11-.41-.61,9.16,6.11,.41-.23,3.48-12.15-.81,.23-3.48,5.9,.39,.61-9.15Z"/><path class="cls-1" d="M74.91,240.78l5.94,.95,1.56-9.72,.14,.02-2.12,13.17-12.03-1.93,2.08-12.92,.14,.02-1.52,9.48,5.67,.91,1.27-7.93,.14,.02-1.27,7.93Z"/><path class="cls-1" d="M84.02,225.77l-.76,3.41-11.89-2.66,.76-3.41,11.89,2.66Z"/><path class="cls-1" d="M89.66,206.04l-1.84,1.48c.21,.84,.29,1.76,.24,2.75-.04,.99-.21,1.98-.51,2.97-.52,1.74-1.22,3.25-2.11,4.53-.88,1.29-1.9,2.22-3.05,2.79-1.15,.58-2.36,.67-3.64,.29-1.22-.37-2.16-1.08-2.83-2.14-.66-1.06-1.02-2.37-1.07-3.93s.2-3.26,.75-5.09c.65-2.15,1.43-3.66,2.35-4.53,.92-.87,1.85-1.16,2.8-.88,.47,.14,.85,.38,1.14,.73l-.1,.15c-.3-.33-.67-.56-1.1-.69-.94-.28-1.84,0-2.68,.86s-1.5,2.08-1.98,3.68c-.45,1.48-.55,2.79-.31,3.94,.24,1.15,.72,2.08,1.46,2.81,.73,.72,1.61,1.24,2.63,1.55s2.03,.4,3.01,.28c.99-.12,1.89-.53,2.71-1.24,.82-.71,1.44-1.76,1.86-3.16,.24-.8,.37-1.58,.38-2.36,.02-.78-.09-1.41-.32-1.89l-4.23-1.27-1.19,3.96-.13-.04,2.18-7.23,5.58,1.68Z"/><path class="cls-1" d="M89.84,188.78l-5.46-2.29,1.35-3.22,11.23,4.71-1.35,3.22-5.65-2.37-3.54,8.46,5.65,2.37-1.35,3.22-11.23-4.71,1.35-3.22,5.46,2.29,3.54-8.46Z"/><path class="cls-1" d="M102.96,176.61l-1.69,3.11-10.58-5.74-3.2,5.9-.12-.07,8.08-14.9,.12,.07-3.2,5.9,10.58,5.74Z"/><path class="cls-1" d="M108.62,166.55c-.85,.83-1.66,1.38-2.41,1.66-.75,.28-1.39,.24-1.91-.1-.37-.25-.6-.58-.71-1.01l.15-.11c.12,.42,.34,.74,.66,.95,.48,.32,1.08,.35,1.79,.08s1.47-.79,2.29-1.58c.82-.78,1.62-1.77,2.41-2.96,.82-1.23,1.4-2.43,1.74-3.61,.34-1.17,.17-1.99-.51-2.44-.42-.28-.91-.29-1.49-.04-.58,.25-1.17,.64-1.78,1.16-.61,.52-1.4,1.27-2.38,2.23-1.1,1.08-2.01,1.93-2.74,2.55-.72,.62-1.45,1.06-2.17,1.34-.72,.28-1.36,.23-1.92-.14-.58-.39-.91-1-.99-1.84-.08-.84,.08-1.83,.49-2.96,.4-1.13,1.02-2.31,1.84-3.54,.77-1.16,1.55-2.1,2.32-2.83,.77-.72,1.49-1.2,2.17-1.43s1.25-.18,1.74,.14c.35,.23,.58,.54,.7,.92l-.14,.09c-.15-.36-.38-.64-.67-.84-.45-.3-1-.35-1.64-.13-.64,.21-1.31,.66-2.03,1.33-.71,.67-1.41,1.52-2.09,2.54-.88,1.31-1.43,2.48-1.65,3.51-.23,1.03-.05,1.74,.53,2.12,.39,.26,.85,.26,1.4,.02,.55-.24,1.11-.62,1.68-1.14,.57-.52,1.34-1.25,2.29-2.19,1.1-1.1,2.02-1.98,2.76-2.62,.74-.64,1.49-1.11,2.25-1.4s1.44-.24,2.04,.16c.68,.45,1.04,1.14,1.09,2.08,.05,.93-.15,2-.62,3.2-.47,1.2-1.13,2.44-1.98,3.73-.82,1.23-1.66,2.26-2.51,3.09Z"/><path class="cls-1" d="M124.74,136.64l-5.33,6.11-.1-.09,5.33-6.1,.1,.09Z"/><path class="cls-1" d="M142.67,117.31c1.27-.33,2.31-.04,3.12,.87,.62,.69,.88,1.53,.77,2.52s-.53,2.05-1.27,3.19c-.74,1.14-1.75,2.27-3.01,3.41-1.05,.94-2.02,1.63-2.91,2.08-.89,.44-1.64,.66-2.25,.66-.62,0-1.07-.17-1.38-.51-.27-.3-.4-.66-.38-1.08,.02-.42,.14-.84,.36-1.26h.14c-.22,.39-.33,.78-.34,1.18-.01,.4,.11,.74,.37,1.03,.32,.35,.78,.52,1.39,.49,.61-.03,1.3-.25,2.08-.66,.78-.41,1.57-.98,2.38-1.7,1.39-1.24,2.23-2.45,2.54-3.61,.3-1.17,.07-2.18-.7-3.05-.67-.74-1.54-1.07-2.62-.97s-2.24,.7-3.48,1.81c-.69,.62-1.31,1.35-1.85,2.19-.54,.84-1.04,1.83-1.49,2.97l-.04,.03-2.42-4.72c-.29-.55-.39-1.02-.28-1.4,.1-.39,.38-.78,.84-1.19,.42-.38,1.24-.94,2.45-1.68,.86-.54,1.6-1.01,2.21-1.43,.62-.42,1.19-.87,1.72-1.34,.59-.53,1.01-1.01,1.25-1.43,.24-.42,.26-.81,.08-1.16l.13-.12c.53,.87,.75,1.73,.65,2.59s-.71,1.81-1.85,2.83c-.84,.75-1.74,1.43-2.7,2.03-.96,.6-2.09,1.26-3.41,1.99l-.81,.44,2.16,4.21c.45-1.21,1.07-2.43,1.85-3.64,.78-1.21,1.7-2.29,2.77-3.25,1.36-1.22,2.68-1.99,3.95-2.32Z"/><path class="cls-1" d="M150.58,119.72c-.44,.03-.76-.1-.99-.38-.22-.28-.27-.63-.15-1.05,.12-.42,.39-.79,.79-1.11,.4-.32,.82-.49,1.26-.52,.44-.03,.76,.1,.99,.38,.22,.28,.27,.63,.14,1.06-.13,.42-.39,.79-.78,1.1-.4,.32-.82,.49-1.26,.52Z"/><path class="cls-1" d="M152.6,103.2l7.16,9.85-2.8,2.04-5.79-7.97c-.21,1.16-.62,2.23-1.22,3.23l-.15-.04c.6-.98,1-2.01,1.2-3.08s.26-2.08,.2-3.01l1.41-1.03Z"/><path class="cls-1" d="M170.69,97.51c1.31-.1,2.28,.36,2.93,1.39,.49,.79,.6,1.66,.33,2.62-.27,.96-.88,1.93-1.8,2.93-.93,1-2.11,1.94-3.55,2.84-1.2,.75-2.27,1.26-3.22,1.55-.95,.29-1.73,.37-2.33,.27-.61-.11-1.03-.35-1.27-.74-.21-.34-.28-.72-.19-1.13s.28-.8,.57-1.18l.14,.04c-.28,.34-.46,.7-.54,1.09-.08,.39-.02,.75,.19,1.07,.25,.4,.68,.64,1.28,.72,.6,.07,1.33-.03,2.17-.3,.84-.27,1.72-.69,2.63-1.26,1.58-.99,2.62-2.03,3.12-3.13,.5-1.1,.44-2.14-.17-3.12-.53-.85-1.33-1.31-2.42-1.4-1.08-.09-2.33,.31-3.74,1.19-.79,.49-1.52,1.11-2.2,1.84-.68,.74-1.34,1.63-1.98,2.67l-.04,.03-1.58-5.07c-.19-.59-.21-1.07-.04-1.43,.17-.36,.51-.71,1.03-1.03,.48-.3,1.38-.71,2.7-1.23,.94-.38,1.75-.72,2.43-1.03,.68-.31,1.32-.65,1.93-1.03,.68-.42,1.17-.82,1.47-1.2,.3-.38,.4-.75,.28-1.13l.15-.09c.37,.94,.44,1.83,.2,2.67-.24,.84-1.01,1.66-2.31,2.47-.96,.6-1.96,1.11-3.01,1.54-1.05,.43-2.28,.89-3.7,1.37l-.87,.3,1.41,4.52c.65-1.12,1.47-2.21,2.44-3.27,.97-1.06,2.07-1.97,3.28-2.72,1.55-.97,2.98-1.5,4.29-1.61Z"/><path class="cls-1" d="M186.53,96.38c-1.5,.14-2.83-.04-3.99-.53s-2-1.32-2.54-2.47c-.54-1.16-.63-2.33-.28-3.53s1.09-2.34,2.22-3.41,2.56-2.02,4.3-2.82c2.03-.95,3.68-1.36,4.94-1.25s2.1,.61,2.52,1.51c.21,.44,.28,.89,.21,1.34l-.18,.03c.05-.45-.02-.87-.21-1.28-.42-.89-1.22-1.37-2.42-1.42-1.2-.06-2.55,.27-4.06,.97-1.4,.65-2.45,1.45-3.15,2.39-.7,.94-1.08,1.92-1.13,2.95-.05,1.03,.15,2.03,.6,2.99,.45,.96,1.05,1.75,1.82,2.38,.77,.63,1.71,1,2.81,1.11,1.1,.11,2.33-.16,3.69-.79,1.52-.71,2.68-1.61,3.46-2.7,.79-1.09,1.09-2.23,.92-3.43l.18-.08c.19,1.27-.15,2.5-1.02,3.68-.87,1.19-2.25,2.22-4.13,3.09-1.54,.71-3.06,1.14-4.56,1.29Z"/><path class="cls-1" d="M211.89,86.79l-7.31-3.18-2.52,.88,1.78,5.11-3.3,1.15-4.01-11.5,6.36-2.21c1.33-.46,2.58-.82,3.73-1.07,1.15-.25,2.22-.28,3.19-.09,.97,.19,1.62,.74,1.94,1.66,.35,1.01,.16,1.91-.58,2.69-.74,.79-1.82,1.49-3.23,2.12l7.65,3.16-3.7,1.29Zm-12.01-8.57l2.13,6.13,3.06-1.07c1.38-.48,2.37-1.1,2.98-1.87,.6-.76,.72-1.67,.36-2.72-.38-1.08-1.01-1.74-1.9-1.97-.89-.23-2.08-.09-3.57,.43l-3.06,1.07Z"/><path class="cls-1" d="M220.24,77.95l1.45,5.84,9.56-2.37,.03,.13-12.95,3.22-2.94-11.82,12.7-3.16,.03,.14-9.32,2.31,1.38,5.57,7.79-1.93,.03,.13-7.79,1.94Z"/><path class="cls-1" d="M250.15,78.5l-3.75,.57-3.11-3.31-7.96,1.22-2,4.09-.22,.03,6.61-13.48h.05s10.37,10.86,10.37,10.86Zm-11.7-7.85l-3.04,6.19,7.76-1.19-4.73-5Z"/><path class="cls-1" d="M258.07,77.99l-3.53,.27-.91-12.01-6.69,.51v-.14s16.89-1.28,16.89-1.28v.14s-6.68,.51-6.68,.51l.91,12.01Z"/><path class="cls-1" d="M270.96,77.55l-3.49,.06-.2-12.18,3.49-.06,.2,12.18Z"/><path class="cls-1" d="M283.9,75.34l7.16-9.15h.22s-9.28,11.83-9.28,11.83h-.05s-7.87-12.79-7.87-12.79l3.78,.21,6.03,9.89Z"/><path class="cls-1" d="M297.31,73.12l-.88,5.96,9.74,1.44-.02,.14-13.2-1.95,1.78-12.05,12.95,1.91-.02,.14-9.5-1.4-.84,5.68,7.94,1.17-.02,.14-7.94-1.17Z"/><path class="cls-1" d="M317.63,82.98c-1.06-.55-1.84-1.13-2.34-1.76s-.67-1.24-.5-1.84c.12-.43,.36-.75,.74-.99l.15,.11c-.36,.25-.59,.56-.69,.93-.15,.56,0,1.13,.49,1.72s1.22,1.14,2.22,1.67,2.19,.98,3.57,1.35c1.43,.39,2.75,.56,3.97,.51,1.22-.05,1.94-.47,2.15-1.25,.13-.48-.01-.96-.44-1.43-.42-.47-.98-.91-1.67-1.32-.69-.41-1.65-.93-2.87-1.55-1.38-.7-2.47-1.3-3.28-1.79-.81-.49-1.47-1.04-1.96-1.63-.49-.6-.65-1.22-.47-1.87,.18-.67,.66-1.18,1.44-1.52s1.76-.5,2.96-.47c1.2,.03,2.51,.24,3.94,.62,1.35,.37,2.49,.8,3.42,1.3,.93,.5,1.61,1.04,2.04,1.6,.43,.57,.57,1.13,.42,1.69-.11,.4-.33,.72-.65,.96l-.13-.11c.29-.26,.49-.56,.58-.91,.14-.53,.01-1.06-.39-1.59-.4-.54-1.04-1.04-1.9-1.5s-1.89-.86-3.08-1.18c-1.52-.42-2.81-.57-3.86-.46-1.05,.11-1.66,.5-1.85,1.17-.12,.45,.02,.89,.42,1.33,.4,.44,.94,.85,1.61,1.23,.67,.38,1.6,.88,2.8,1.48,1.4,.69,2.52,1.29,3.36,1.79,.85,.5,1.53,1.07,2.04,1.69,.52,.63,.68,1.29,.49,1.98-.21,.78-.76,1.35-1.63,1.69-.87,.35-1.95,.49-3.23,.43s-2.67-.3-4.16-.7c-1.43-.39-2.67-.86-3.73-1.41Z"/><path class="cls-1" d="M339.64,90.19l-3.32-1.24,4.2-11.28-6.29-2.34,.05-.13,15.89,5.92-.05,.13-6.29-2.34-4.2,11.28Z"/><path class="cls-1" d="M350.37,93.41c-.71-1.25-.73-2.57-.05-3.96l3.32-6.8,3.14,1.53-3.32,6.8c-.63,1.28-.75,2.45-.38,3.5s1.43,2.01,3.18,2.86c1.7,.83,3.2,1.16,4.49,.99s2.28-.95,2.96-2.35l3.32-6.8,.18,.09-3.32,6.8c-.68,1.39-1.71,2.19-3.11,2.42-1.39,.22-3.29-.25-5.7-1.43-2.43-1.19-4.01-2.41-4.72-3.66Z"/><path class="cls-1" d="M364.83,101.83l6.4-10.37,5.2,3.21c5.83,3.6,7.67,7.12,5.54,10.58-.62,1.01-1.51,1.7-2.65,2.07-1.15,.37-2.51,.37-4.1,0-1.59-.37-3.32-1.13-5.19-2.28l-5.2-3.21Zm5.27,3.09c1.32,.81,2.48,1.3,3.5,1.47s1.95,0,2.8-.5c.85-.5,1.65-1.36,2.4-2.59,.76-1.22,1.17-2.33,1.24-3.31,.07-.98-.2-1.89-.81-2.73-.61-.84-1.57-1.66-2.88-2.47l-2.23-1.38-6.25,10.13,2.23,1.38Z"/><path class="cls-1" d="M384.15,114.43l-2.84-2.03,7.1-9.9,2.84,2.03-7.1,9.9Z"/><path class="cls-1" d="M390.75,118.69c-.77-1.25-1.18-2.51-1.24-3.77-.05-1.26,.35-2.41,1.21-3.44,.86-1.03,1.92-1.64,3.17-1.81,1.25-.17,2.56,0,3.93,.54,1.37,.53,2.7,1.33,3.97,2.4,1.26,1.05,2.28,2.21,3.05,3.46,.77,1.25,1.18,2.51,1.24,3.77,.05,1.26-.35,2.41-1.21,3.44-.86,1.03-1.92,1.64-3.17,1.81-1.25,.17-2.56,0-3.93-.54-1.37-.53-2.69-1.33-3.96-2.38-1.28-1.06-2.3-2.22-3.07-3.48Zm11.29,2.23c2.6-3.12,2.49-5.85-.33-8.21-2.83-2.36-5.55-1.99-8.15,1.13-2.6,3.12-2.48,5.86,.35,8.22,2.82,2.35,5.53,1.97,8.13-1.15Z"/><path class="cls-1" d="M419.59,139.24l-5.47-5.98,.1-.09,5.47,5.98-.1,.09Z"/></g></svg>