<?xml version="1.0" encoding="UTF-8"?><svg xmlns="http://www.w3.org/2000/svg" xmlns:xlink="http://www.w3.org/1999/xlink" viewBox="0 0 50 50"><defs><style>.cls-1{fill:url(#radial-gradient);mix-blend-mode:multiply;opacity:.8;}.cls-2{fill:#fff;}.cls-3{isolation:isolate;}</style><radialGradient id="radial-gradient" cx="29" cy="29" fx="29" fy="29" r="21" gradientUnits="userSpaceOnUse"><stop offset="0" stop-color="#000056"/><stop offset=".39" stop-color="#7373a2" stop-opacity=".55"/><stop offset=".78" stop-color="#d8d8e5" stop-opacity=".15"/><stop offset="1" stop-color="#fff" stop-opacity="0"/></radialGradient></defs><g class="cls-3"><g id="ELEMENTS"><g><circle class="cls-1" cx="29" cy="29" r="21"/><circle cx="22.95" cy="20.02" r="14.62"/><path class="cls-2" d="M30.54,18.33c-.15,.01-.3,.02-.45,.02-1.65,0-3.19-.83-4.09-2.21v7.52c0,3.07-2.49,5.56-5.56,5.56s-5.56-2.49-5.56-5.56,2.49-5.56,5.56-5.56h0c.12,0,.23,.01,.34,.02v2.74c-.11-.01-.23-.03-.34-.03-1.57,0-2.84,1.27-2.84,2.84s1.27,2.84,2.84,2.84,2.95-1.24,2.95-2.8l.03-12.78h2.62c.25,2.35,2.14,4.19,4.5,4.36v3.05"/></g></g></g></svg>