<?xml version="1.0" encoding="UTF-8"?><svg xmlns="http://www.w3.org/2000/svg" xmlns:xlink="http://www.w3.org/1999/xlink" viewBox="0 0 50 50"><defs><style>.cls-1{fill:url(#linear-gradient);}.cls-2{fill:url(#radial-gradient);mix-blend-mode:multiply;opacity:.8;}.cls-3{fill:#69c9d0;}.cls-3,.cls-4,.cls-5{fill-rule:evenodd;}.cls-4{fill:#fff;}.cls-5{fill:#ee1d52;}.cls-6{isolation:isolate;}</style><radialGradient id="radial-gradient" cx="32.14" cy="32.19" fx="32.14" fy="32.19" r="17.86" gradientUnits="userSpaceOnUse"><stop offset="0" stop-color="#000056"/><stop offset=".39" stop-color="#7373a2" stop-opacity=".55"/><stop offset=".78" stop-color="#d8d8e5" stop-opacity=".15"/><stop offset="1" stop-color="#fff" stop-opacity="0"/></radialGradient><linearGradient id="linear-gradient" x1="18.21" y1="15.76" x2="35.79" y2="33.35" gradientUnits="userSpaceOnUse"><stop offset="0" stop-color="#22004a"/><stop offset=".96" stop-color="#010003"/><stop offset="1" stop-color="#000"/></linearGradient></defs><g class="cls-6"><g id="ELEMENTS"><g><circle class="cls-2" cx="32.14" cy="32.19" r="17.86"/><circle class="cls-1" cx="27" cy="24.55" r="12.43"/><g><path class="cls-5" d="M30.36,22.27c1.02,.73,2.26,1.15,3.61,1.15v-2.59c-.25,0-.51-.03-.76-.08v2.04c-1.35,0-2.59-.43-3.61-1.15v5.28c0,2.64-2.14,4.79-4.79,4.79-.99,0-1.9-.3-2.67-.81,.87,.89,2.08,1.44,3.42,1.44,2.64,0,4.79-2.14,4.79-4.79v-5.28h0Zm.94-2.61c-.52-.57-.86-1.3-.94-2.11v-.33h-.72c.18,1.03,.8,1.91,1.65,2.45h0Zm-7.47,9.21c-.29-.38-.45-.85-.45-1.33,0-1.21,.98-2.19,2.19-2.19,.23,0,.45,.03,.66,.1v-2.65c-.25-.03-.5-.05-.76-.04v2.06c-.21-.07-.44-.1-.66-.1-1.21,0-2.19,.98-2.19,2.19,0,.85,.49,1.6,1.2,1.96Z"/><path class="cls-4" d="M29.6,21.64c1.02,.73,2.26,1.15,3.61,1.15v-2.04c-.75-.16-1.42-.55-1.92-1.1-.86-.53-1.47-1.41-1.65-2.45h-1.89v10.34c0,1.21-.98,2.18-2.19,2.18-.71,0-1.34-.34-1.74-.86-.71-.36-1.2-1.1-1.2-1.96,0-1.21,.98-2.19,2.19-2.19,.23,0,.46,.04,.66,.1v-2.06c-2.6,.05-4.69,2.18-4.69,4.78,0,1.3,.52,2.48,1.36,3.35,.76,.51,1.68,.81,2.67,.81,2.64,0,4.79-2.14,4.79-4.79v-5.28Z"/><path class="cls-3" d="M33.21,20.76v-.55c-.68,0-1.34-.19-1.92-.55,.51,.56,1.18,.94,1.92,1.1Zm-3.57-3.54c-.02-.1-.03-.2-.04-.3v-.33h-2.61v10.34c0,1.21-.98,2.18-2.19,2.18-.35,0-.69-.08-.99-.23,.4,.52,1.03,.86,1.74,.86,1.21,0,2.19-.98,2.19-2.18v-10.34h1.89Zm-4.17,5.56v-.59c-.22-.03-.44-.04-.66-.04-2.64,0-4.79,2.14-4.79,4.79,0,1.66,.84,3.12,2.12,3.98-.84-.86-1.36-2.04-1.36-3.35,0-2.61,2.09-4.73,4.69-4.78h0Z"/></g></g></g></g></svg>