<?xml version="1.0" encoding="UTF-8"?><svg xmlns="http://www.w3.org/2000/svg" xmlns:xlink="http://www.w3.org/1999/xlink" viewBox="0 0 50 50"><defs><style>.cls-1{fill:url(#radial-gradient);mix-blend-mode:multiply;opacity:.8;}.cls-2{fill:#fff;}.cls-3{fill:url(#Degradado_sin_nombre_7);}.cls-4{isolation:isolate;}</style><radialGradient id="radial-gradient" cx="29.14" cy="29.01" fx="29.14" fy="29.01" r="20.86" gradientTransform="translate(14.17 -9.28) rotate(23.77)" gradientUnits="userSpaceOnUse"><stop offset="0" stop-color="#000056"/><stop offset=".39" stop-color="#7373a2" stop-opacity=".55"/><stop offset=".78" stop-color="#d8d8e5" stop-opacity=".15"/><stop offset="1" stop-color="#fff" stop-opacity="0"/></radialGradient><linearGradient id="Degradado_sin_nombre_7" x1="33.8" y1="10.53" x2="13.26" y2="31.06" gradientUnits="userSpaceOnUse"><stop offset="0" stop-color="red"/><stop offset="1" stop-color="#850000"/></linearGradient></defs><g class="cls-4"><g id="ELEMENTS"><g><circle class="cls-1" cx="29.14" cy="29.01" r="20.86" transform="translate(-9.22 14.21) rotate(-23.77)"/><circle class="cls-3" cx="23.53" cy="20.79" r="14.52"/><path class="cls-2" d="M31.3,18.68c0-1.93-1.56-3.49-3.49-3.49h-8.92c-1.93,0-3.49,1.56-3.49,3.49v4.15c0,1.93,1.56,3.49,3.49,3.49h8.92c1.93,0,3.49-1.56,3.49-3.49v-4.15Zm-5.24,2.39l-4,1.98c-.16,.08-.69-.03-.69-.21v-4.06c0-.18,.54-.29,.69-.2l3.83,2.08c.16,.09,.33,.32,.17,.41Z"/></g></g></g></svg>