<?xml version="1.0" encoding="UTF-8"?><svg xmlns="http://www.w3.org/2000/svg" xmlns:xlink="http://www.w3.org/1999/xlink" viewBox="0 0 50 50"><defs><style>.cls-1{fill:url(#radial-gradient);mix-blend-mode:multiply;opacity:.8;}.cls-2{fill:#fff;}.cls-3{isolation:isolate;}</style><radialGradient id="radial-gradient" cx="29" cy="29" fx="29" fy="29" r="21" gradientUnits="userSpaceOnUse"><stop offset="0" stop-color="#000056"/><stop offset=".39" stop-color="#7373a2" stop-opacity=".55"/><stop offset=".78" stop-color="#d8d8e5" stop-opacity=".15"/><stop offset="1" stop-color="#fff" stop-opacity="0"/></radialGradient></defs><g class="cls-3"><g id="ELEMENTS"><g><circle class="cls-1" cx="29" cy="29" r="21"/><circle cx="23.35" cy="20.73" r="14.62"/><path class="cls-2" d="M31.18,18.6c0-1.94-1.57-3.51-3.51-3.51h-8.98c-1.94,0-3.51,1.57-3.51,3.51v4.18c0,1.94,1.57,3.51,3.51,3.51h8.98c1.94,0,3.51-1.57,3.51-3.51v-4.18Zm-5.28,2.4l-4.03,1.99c-.16,.09-.69-.03-.69-.21v-4.09c0-.18,.54-.3,.7-.21l3.85,2.1c.16,.09,.33,.33,.17,.41Z"/></g></g></g></svg>