<?xml version="1.0" encoding="UTF-8"?><svg xmlns="http://www.w3.org/2000/svg" xmlns:xlink="http://www.w3.org/1999/xlink" viewBox="0 0 50 50"><defs><style>.cls-1{fill:url(#radial-gradient);mix-blend-mode:multiply;opacity:.8;}.cls-2{fill:#fff;}.cls-3{fill:url(#Degradado_sin_nombre_7);}.cls-4{isolation:isolate;}</style><radialGradient id="radial-gradient" cx="32.14" cy="32.01" fx="32.14" fy="32.01" r="17.86" gradientUnits="userSpaceOnUse"><stop offset="0" stop-color="#000056"/><stop offset=".39" stop-color="#7373a2" stop-opacity=".55"/><stop offset=".78" stop-color="#d8d8e5" stop-opacity=".15"/><stop offset="1" stop-color="#fff" stop-opacity="0"/></radialGradient><linearGradient id="Degradado_sin_nombre_7" x1="36.13" y1="16.18" x2="18.54" y2="33.77" gradientUnits="userSpaceOnUse"><stop offset="0" stop-color="red"/><stop offset="1" stop-color="#850000"/></linearGradient></defs><g class="cls-4"><g id="ELEMENTS"><g><circle class="cls-1" cx="32.14" cy="32.01" r="17.86"/><circle class="cls-3" cx="27.34" cy="24.98" r="12.43"/><path class="cls-2" d="M33.99,23.17c0-1.65-1.34-2.99-2.99-2.99h-7.63c-1.65,0-2.99,1.34-2.99,2.99v3.55c0,1.65,1.34,2.99,2.99,2.99h7.63c1.65,0,2.99-1.34,2.99-2.99v-3.55Zm-4.49,2.04l-3.42,1.69c-.13,.07-.59-.02-.59-.18v-3.48c0-.15,.46-.25,.59-.18l3.28,1.78c.14,.08,.28,.28,.14,.35Z"/></g></g></g></svg>